<svg width="20" height="20" viewBox="0 0 20 20" fill="none" xmlns="http://www.w3.org/2000/svg">
<path d="M7.13416 9.25758L8.71749 11.0909L12.2193 7.01376" stroke="#596250" stroke-width="1.5" stroke-linecap="round" stroke-linejoin="round"/>
<path d="M15 14.0191V15.1666C15 15.6269 14.6269 16 14.1667 16H3.8392C3.37668 16 3.00265 15.6233 3.00588 15.1608L3.07461 5.33331M3.07461 5.33331L3.07898 4.70831C3.06691 4.24371 3.19546 4.09806 3.70835 4.07894L4.33335 4.07457L13.6667 4.00931L14.3333 4.00464C14.8529 4.02366 15.0055 4.16122 15 4.66664C15.002 4.96072 15.0072 5.05647 15.0117 5.33331C15.0971 10.5979 15.6592 12.1575 17.315 13.7116C17.4292 13.8188 17.356 14.0191 17.1993 14.0191H6.02045C5.79436 14.0191 5.57638 13.9278 5.4239 13.7608C3.33766 11.477 3.38871 10.3826 3.07461 5.33331Z" stroke="#596250" stroke-width="1.5" stroke-linejoin="round"/>
</svg>
