<svg width="32" height="32" viewBox="0 0 32 32" fill="none" xmlns="http://www.w3.org/2000/svg">
<path d="M23 3H22.2869C22.1864 2.9999 22.0884 2.96956 22.0054 2.91293C21.9225 2.8563 21.8585 2.776 21.8219 2.6825C21.6297 2.18741 21.2926 1.76189 20.8545 1.46167C20.4165 1.16146 19.8979 1.00054 19.3669 1H12.6331C12.1021 1.00054 11.5835 1.16146 11.1455 1.46167C10.7074 1.76189 10.3703 2.18741 10.1781 2.6825C10.1415 2.776 10.0775 2.8563 9.99457 2.91293C9.91163 2.96956 9.81355 2.9999 9.71313 3H9C7.93913 3 6.92172 3.42143 6.17157 4.17157C5.42143 4.92172 5 5.93913 5 7V27C5 28.0609 5.42143 29.0783 6.17157 29.8284C6.92172 30.5786 7.93913 31 9 31H23C24.0609 31 25.0783 30.5786 25.8284 29.8284C26.5786 29.0783 27 28.0609 27 27V7C27 5.93913 26.5786 4.92172 25.8284 4.17157C25.0783 3.42143 24.0609 3 23 3ZM19.9919 7H12.0081C11.7429 7 11.4886 6.89464 11.301 6.70711C11.1135 6.51957 11.0081 6.26522 11.0081 6C11.0081 5.73478 11.1135 5.48043 11.301 5.29289C11.4886 5.10536 11.7429 5 12.0081 5H19.9919C20.2571 5 20.5114 5.10536 20.699 5.29289C20.8865 5.48043 20.9919 5.73478 20.9919 6C20.9919 6.26522 20.8865 6.51957 20.699 6.70711C20.5114 6.89464 20.2571 7 19.9919 7Z" fill="url(#paint0_radial_146_67)" stroke="white" stroke-opacity="0.3"/>
<defs>
<radialGradient id="paint0_radial_146_67" cx="0" cy="0" r="1" gradientUnits="userSpaceOnUse" gradientTransform="translate(16 16) rotate(90) scale(22.5 16.5)">
<stop stop-color="#A2C880"/>
<stop offset="1" stop-color="#A2C880" stop-opacity="0.64"/>
</radialGradient>
</defs>
</svg>
