<svg width="80" height="80" viewBox="0 0 80 80" fill="none" xmlns="http://www.w3.org/2000/svg">
<g filter="url(#filter0_ddiii_156_564)">
<path d="M8 15C8 10.5817 11.5817 7 16 7H64C68.4183 7 72 10.5817 72 15V63C72 67.4183 68.4183 71 64 71H16C11.5817 71 8 67.4183 8 63V15Z" fill="white"/>
<path d="M8 15C8 10.5817 11.5817 7 16 7H64C68.4183 7 72 10.5817 72 15V63C72 67.4183 68.4183 71 64 71H16C11.5817 71 8 67.4183 8 63V15Z" fill="url(#paint0_radial_156_564)"/>
<path d="M34.2683 37.5152L37.435 41.1818L44.4386 33.0275" stroke="white" stroke-width="2.5" stroke-linecap="round" stroke-linejoin="round"/>
<path d="M50 47.0384V49.3333C50 50.2538 49.2538 51 48.3334 51H27.6784C26.7534 51 26.0053 50.2467 26.0118 49.3217L26.1492 29.6667M26.1492 29.6667L26.158 28.4167C26.1338 27.4875 26.3909 27.1962 27.4167 27.1579L28.6667 27.1492L47.3334 27.0187L48.6667 27.0093C49.7059 27.0474 50.011 27.3225 50 28.3333C50.0039 28.9215 50.0144 29.113 50.0234 29.6667C50.1942 40.1958 51.3184 43.315 54.63 46.4232C54.8584 46.6376 54.712 47.0384 54.3987 47.0384H32.0409C31.5887 47.0384 31.1528 46.8556 30.8478 46.5217C26.6753 41.9541 26.7774 39.7653 26.1492 29.6667Z" stroke="white" stroke-width="2.5" stroke-linejoin="round"/>
<mask id="mask0_156_564" style="mask-type:luminance" maskUnits="userSpaceOnUse" x="8" y="7" width="64" height="64">
<path d="M8 15C8 10.5817 11.5817 7 16 7H64C68.4183 7 72 10.5817 72 15V63C72 67.4183 68.4183 71 64 71H16C11.5817 71 8 67.4183 8 63V15Z" fill="#5F903C" fill-opacity="0.2"/>
</mask>
<g mask="url(#mask0_156_564)">
<path d="M72 63C72 67.9706 67.9706 72 63 72H17C12.0294 72 8 67.9706 8 63C8 66.866 11.5817 70 16 70H64C68.4183 70 72 66.866 72 63Z" fill="#5F903C" fill-opacity="0.2"/>
</g>
</g>
<defs>
<filter id="filter0_ddiii_156_564" x="4" y="6" width="72" height="73" filterUnits="userSpaceOnUse" color-interpolation-filters="sRGB">
<feFlood flood-opacity="0" result="BackgroundImageFix"/>
<feColorMatrix in="SourceAlpha" type="matrix" values="0 0 0 0 0 0 0 0 0 0 0 0 0 0 0 0 0 0 127 0" result="hardAlpha"/>
<feOffset dy="4"/>
<feGaussianBlur stdDeviation="2"/>
<feComposite in2="hardAlpha" operator="out"/>
<feColorMatrix type="matrix" values="0 0 0 0 0.861086 0 0 0 0 0.9324 0 0 0 0 0.8076 0 0 0 0.25 0"/>
<feBlend mode="normal" in2="BackgroundImageFix" result="effect1_dropShadow_156_564"/>
<feColorMatrix in="SourceAlpha" type="matrix" values="0 0 0 0 0 0 0 0 0 0 0 0 0 0 0 0 0 0 127 0" result="hardAlpha"/>
<feOffset dy="4"/>
<feGaussianBlur stdDeviation="2"/>
<feComposite in2="hardAlpha" operator="out"/>
<feColorMatrix type="matrix" values="0 0 0 0 0.861086 0 0 0 0 0.9324 0 0 0 0 0.8076 0 0 0 0.25 0"/>
<feBlend mode="normal" in2="effect1_dropShadow_156_564" result="effect2_dropShadow_156_564"/>
<feBlend mode="normal" in="SourceGraphic" in2="effect2_dropShadow_156_564" result="shape"/>
<feColorMatrix in="SourceAlpha" type="matrix" values="0 0 0 0 0 0 0 0 0 0 0 0 0 0 0 0 0 0 127 0" result="hardAlpha"/>
<feOffset dy="1"/>
<feGaussianBlur stdDeviation="4"/>
<feComposite in2="hardAlpha" operator="arithmetic" k2="-1" k3="1"/>
<feColorMatrix type="matrix" values="0 0 0 0 0.0117647 0 0 0 0 0.0196078 0 0 0 0 0.00784314 0 0 0 0.12 0"/>
<feBlend mode="normal" in2="shape" result="effect3_innerShadow_156_564"/>
<feColorMatrix in="SourceAlpha" type="matrix" values="0 0 0 0 0 0 0 0 0 0 0 0 0 0 0 0 0 0 127 0" result="hardAlpha"/>
<feOffset dy="-1"/>
<feGaussianBlur stdDeviation="1.5"/>
<feComposite in2="hardAlpha" operator="arithmetic" k2="-1" k3="1"/>
<feColorMatrix type="matrix" values="0 0 0 0 0.34902 0 0 0 0 0.384314 0 0 0 0 0.313726 0 0 0 0.6 0"/>
<feBlend mode="normal" in2="effect3_innerShadow_156_564" result="effect4_innerShadow_156_564"/>
<feColorMatrix in="SourceAlpha" type="matrix" values="0 0 0 0 0 0 0 0 0 0 0 0 0 0 0 0 0 0 127 0" result="hardAlpha"/>
<feOffset dy="3"/>
<feGaussianBlur stdDeviation="4"/>
<feComposite in2="hardAlpha" operator="arithmetic" k2="-1" k3="1"/>
<feColorMatrix type="matrix" values="0 0 0 0 0.92549 0 0 0 0 0.956863 0 0 0 0 0.901961 0 0 0 0.3 0"/>
<feBlend mode="normal" in2="effect4_innerShadow_156_564" result="effect5_innerShadow_156_564"/>
</filter>
<radialGradient id="paint0_radial_156_564" cx="0" cy="0" r="1" gradientUnits="userSpaceOnUse" gradientTransform="translate(40 39) rotate(90) scale(48)">
<stop stop-color="#A6C880"/>
<stop offset="1" stop-color="#A2C880" stop-opacity="0.64"/>
</radialGradient>
</defs>
</svg>
