<svg width="20" height="20" viewBox="0 0 20 20" fill="none" xmlns="http://www.w3.org/2000/svg">
<path d="M15 8.75V15.9375C15 16.1427 14.9596 16.3459 14.8811 16.5354C14.8025 16.725 14.6874 16.8973 14.5424 17.0424C14.3973 17.1874 14.225 17.3025 14.0354 17.3811C13.8459 17.4596 13.6427 17.5 13.4375 17.5H4.0625C3.6481 17.5 3.25067 17.3354 2.95765 17.0424C2.66462 16.7493 2.5 16.3519 2.5 15.9375V6.5625C2.5 6.1481 2.66462 5.75067 2.95765 5.45765C3.25067 5.16462 3.6481 5 4.0625 5H10.6047" stroke="#030502" stroke-width="1.5" stroke-linecap="round" stroke-linejoin="round"/>
<path d="M17.9664 2.08007C17.9093 2.01736 17.8401 1.96686 17.763 1.93164C17.6858 1.89642 17.6023 1.87721 17.5176 1.87517C17.4328 1.87312 17.3485 1.88829 17.2697 1.91975C17.191 1.95121 17.1194 1.99831 17.0594 2.0582L16.5762 2.53906C16.5176 2.59766 16.4847 2.67711 16.4847 2.75996C16.4847 2.8428 16.5176 2.92226 16.5762 2.98086L17.0191 3.42304C17.0482 3.45222 17.0827 3.47536 17.1207 3.49116C17.1587 3.50696 17.1995 3.51509 17.2406 3.51509C17.2818 3.51509 17.3225 3.50696 17.3605 3.49116C17.3985 3.47536 17.4331 3.45222 17.4621 3.42304L17.9332 2.95429C18.1715 2.7164 18.1937 2.3289 17.9664 2.08007ZM15.5992 3.51562L8.54764 10.5547C8.50489 10.5973 8.47381 10.6501 8.45741 10.7082L8.13124 11.6797C8.12342 11.706 8.12287 11.734 8.12963 11.7607C8.1364 11.7873 8.15023 11.8116 8.16967 11.8311C8.18911 11.8505 8.21344 11.8644 8.24009 11.8711C8.26674 11.8779 8.29472 11.8773 8.32108 11.8695L9.29178 11.5434C9.34985 11.527 9.40272 11.4959 9.4453 11.4531L16.4844 4.40078C16.5495 4.33496 16.586 4.2461 16.586 4.15351C16.586 4.06092 16.5495 3.97207 16.4844 3.90625L16.0957 3.51562C16.0298 3.4499 15.9405 3.413 15.8474 3.413C15.7544 3.413 15.6651 3.4499 15.5992 3.51562Z" fill="#030502"/>
</svg>
