<svg width="200" height="160" viewBox="0 0 200 160" fill="none" xmlns="http://www.w3.org/2000/svg">
<path d="M96.87 140.615C139.752 140.615 174.515 120.544 174.515 95.7851C174.515 71.0261 139.752 50.955 96.87 50.955C53.9879 50.955 19.225 71.0261 19.225 95.7851C19.225 120.544 53.9879 140.615 96.87 140.615Z" fill="#F5F5F5"/>
<path d="M49.455 97.59L98.015 125.625L138.745 102.115L90.185 74.08L49.455 97.59Z" fill="#E0E0E0"/>
<path d="M134.89 101.22L98.01 122.515L56.48 98.4799L93.36 77.1899L134.89 101.22Z" fill="#596250"/>
<path opacity="0.5" d="M134.89 101.22L98.01 122.515L56.48 98.4799L93.36 77.1899L134.89 101.22Z" fill="black"/>
<path d="M93.36 48.325V77.19L56.48 98.4799V69.6199L93.36 48.325Z" fill="#596250"/>
<path opacity="0.23" d="M93.36 48.325V77.19L56.48 98.4799V69.6199L93.36 48.325Z" fill="black"/>
<path d="M98.01 93.65V122.515L56.48 98.48V69.62L98.01 93.65Z" fill="#596250"/>
<path opacity="0.38" d="M98.01 93.65V122.515L56.48 98.48V69.62L98.01 93.65Z" fill="black"/>
<path d="M134.89 72.3549V101.22L93.36 77.19V48.325L134.89 72.3549Z" fill="#596250"/>
<path opacity="0.4" d="M134.89 72.3549V101.22L93.36 77.19V48.325L134.89 72.3549Z" fill="black"/>
<path d="M134.89 101.22V72.355L98.01 93.65V122.515L134.89 101.22Z" fill="#596250"/>
<path opacity="0.23" d="M134.89 101.22V72.355L98.01 93.65V122.515L134.89 101.22Z" fill="black"/>
<path d="M93.36 48.325L93.41 32.345L134.84 56.405L134.89 72.355L93.36 48.325Z" fill="#596250"/>
<path opacity="0.2" d="M93.36 48.325L93.41 32.345L134.84 56.405L134.89 72.355L93.36 48.325Z" fill="black"/>
<path d="M98.01 93.6499L101.47 79.6699L138.015 58.5699L134.89 72.3549L98.01 93.6499Z" fill="#596250"/>
<path opacity="0.3" d="M98.01 93.6499L101.47 79.6699L138.015 58.5699L134.89 72.3549L98.01 93.6499Z" fill="black"/>
<path d="M56.48 69.6199L52.08 55.1199L88.96 33.83L93.36 48.325L56.48 69.6199Z" fill="#596250"/>
<path opacity="0.1" d="M56.48 69.6199L52.08 55.1199L88.96 33.83L93.36 48.325L56.48 69.6199Z" fill="black"/>
<path d="M56.48 69.6199L47.8 57.6349L89.335 81.6649L98.01 93.6499L56.48 69.6199Z" fill="#596250"/>
<path opacity="0.45" d="M56.48 69.6199L47.8 57.6349L89.335 81.6649L98.01 93.6499L56.48 69.6199Z" fill="black"/>
<g opacity="0.7">
<path d="M108.87 113.93C108.81 113.93 108.752 113.906 108.709 113.864C108.666 113.822 108.641 113.765 108.64 113.705V108.625C108.641 108.564 108.666 108.507 108.709 108.464C108.752 108.421 108.809 108.396 108.87 108.395C108.93 108.396 108.987 108.421 109.029 108.464C109.071 108.507 109.095 108.565 109.095 108.625V113.705C109.095 113.765 109.071 113.822 109.029 113.864C108.987 113.906 108.93 113.93 108.87 113.93Z" fill="white"/>
<path d="M108.205 110.385C108.175 110.39 108.145 110.39 108.115 110.385C108.06 110.36 108.018 110.315 107.995 110.259C107.973 110.203 107.973 110.141 107.995 110.085L108.805 108.22L109.705 109.26C109.737 109.307 109.751 109.363 109.744 109.419C109.737 109.476 109.709 109.527 109.667 109.564C109.624 109.602 109.569 109.622 109.513 109.621C109.456 109.62 109.402 109.598 109.36 109.56L108.935 109.06L108.435 110.26C108.413 110.301 108.38 110.335 108.339 110.357C108.298 110.38 108.251 110.389 108.205 110.385Z" fill="white"/>
<path d="M110.965 112.735C110.905 112.734 110.848 112.709 110.806 112.666C110.764 112.623 110.74 112.565 110.74 112.505V107.43C110.74 107.37 110.764 107.313 110.806 107.271C110.848 107.229 110.905 107.205 110.965 107.205C111.025 107.205 111.082 107.229 111.124 107.271C111.166 107.313 111.19 107.37 111.19 107.43V112.5C111.191 112.53 111.185 112.56 111.174 112.588C111.163 112.617 111.147 112.642 111.126 112.664C111.105 112.686 111.08 112.703 111.053 112.716C111.025 112.728 110.995 112.734 110.965 112.735Z" fill="white"/>
<path d="M110.3 109.19C110.27 109.195 110.24 109.195 110.21 109.19C110.183 109.178 110.158 109.161 110.137 109.139C110.116 109.118 110.1 109.092 110.09 109.064C110.079 109.036 110.074 109.006 110.075 108.977C110.076 108.947 110.083 108.917 110.095 108.89L110.9 107L111.8 108.035C111.842 108.078 111.865 108.135 111.865 108.195C111.865 108.255 111.842 108.312 111.8 108.355C111.779 108.376 111.754 108.393 111.727 108.404C111.699 108.416 111.67 108.422 111.64 108.422C111.61 108.422 111.581 108.416 111.553 108.404C111.526 108.393 111.501 108.376 111.48 108.355L111.055 107.855L110.555 109.055C110.534 109.103 110.498 109.143 110.451 109.167C110.405 109.192 110.352 109.2 110.3 109.19Z" fill="white"/>
</g>
<g opacity="0.7">
<path d="M102.825 117.375C102.74 117.376 102.655 117.356 102.58 117.315C102.49 117.257 102.416 117.176 102.368 117.08C102.32 116.984 102.298 116.877 102.305 116.77V116.145C102.306 116.085 102.331 116.028 102.374 115.986C102.417 115.943 102.475 115.92 102.535 115.92C102.595 115.92 102.652 115.944 102.694 115.986C102.736 116.028 102.76 116.085 102.76 116.145V116.77C102.76 116.86 102.76 116.91 102.805 116.92C102.85 116.93 102.875 116.92 102.95 116.88C103.091 116.75 103.202 116.591 103.275 116.414C103.348 116.237 103.382 116.046 103.375 115.855V113.255C103.375 113.195 103.399 113.138 103.441 113.096C103.483 113.054 103.54 113.03 103.6 113.03C103.66 113.03 103.717 113.054 103.759 113.096C103.801 113.138 103.825 113.195 103.825 113.255V115.855C103.836 116.125 103.784 116.394 103.672 116.639C103.559 116.885 103.391 117.101 103.18 117.27C103.073 117.336 102.951 117.372 102.825 117.375Z" fill="white"/>
<path d="M100.44 115.28V114.89C100.499 113.889 100.792 112.915 101.295 112.047C101.797 111.179 102.496 110.44 103.335 109.89C104.155 109.42 104.935 109.35 105.535 109.7C105.855 109.919 106.11 110.221 106.274 110.573C106.437 110.924 106.503 111.314 106.465 111.7V111.83L100.44 115.28ZM104.695 109.91C104.295 109.928 103.906 110.049 103.565 110.26C102.846 110.733 102.237 111.355 101.78 112.084C101.323 112.813 101.028 113.632 100.915 114.485L106 111.545C106.022 111.255 105.968 110.965 105.845 110.702C105.721 110.439 105.532 110.213 105.295 110.045C105.11 109.948 104.903 109.902 104.695 109.91Z" fill="white"/>
</g>
<path opacity="0.7" d="M47.8 57.6349L89.335 81.6649L98.01 93.6499L88.875 82.09L47.8 57.6349Z" fill="white"/>
<path opacity="0.7" d="M134.89 72.355L98.01 93.65V122.515L98.7 94.23L134.89 72.355Z" fill="white"/>
<path d="M80.77 60.81C84.575 60.26 88.05 57.8099 90.27 54.7299C91.3053 53.2909 92.0679 51.6741 92.52 49.96C93.0001 48.357 93.0791 46.6606 92.75 45.02C92.065 42.275 89.525 40.6499 86.84 40.3099C85.4775 40.1307 84.0921 40.2658 82.79 40.705C81.4398 41.1683 80.2684 42.0425 79.44 43.205C78.9206 43.8243 78.5938 44.5821 78.5 45.3849C78.492 45.6994 78.6029 46.0053 78.8105 46.2416C79.0181 46.478 79.3071 46.6273 79.62 46.66C80.4251 46.7278 81.2297 46.5235 81.905 46.08C82.7284 45.6182 83.4537 44.9999 84.04 44.2599C85.2976 42.7078 86.2387 40.9242 86.81 39.0099C87.2108 37.3674 87.2108 35.6525 86.81 34.01C86.5055 32.2917 85.7201 30.695 84.545 29.405C83.1978 28.1798 81.4883 27.4269 79.675 27.26C77.8703 27.012 76.0328 27.1831 74.305 27.76C73.546 27.9901 72.8429 28.3748 72.24 28.89C71.81 29.29 71.32 29.95 71.495 30.6C71.67 31.25 72.62 31.54 73.265 31.455C74.2196 31.2761 75.094 30.8021 75.765 30.1C76.5128 29.3638 77.1479 28.5214 77.65 27.6C78.023 26.9377 78.2177 26.19 78.215 25.43C78.15 22.26 74.645 20.2099 71.9 19.6299C71.159 19.4751 70.4 19.4247 69.645 19.48C69.39 19.48 69.545 19.9 69.75 19.885C71.2271 19.8178 72.6951 20.1494 74 20.845C75.2874 21.4367 76.3686 22.3995 77.105 23.61C77.4332 24.2067 77.5951 24.8806 77.574 25.5614C77.5529 26.2421 77.3495 26.9047 76.985 27.48C76.4954 28.3327 75.8858 29.1106 75.175 29.79C74.58 30.33 73.675 30.9549 72.84 30.8949C72.7021 30.8946 72.5671 30.8556 72.4504 30.7822C72.3337 30.7088 72.24 30.6041 72.18 30.48C72.1548 30.3158 72.1683 30.148 72.2196 29.99C72.2708 29.832 72.3583 29.6881 72.475 29.57C72.9165 29.0945 73.4626 28.7281 74.07 28.5C75.57 27.8764 77.1943 27.6094 78.815 27.72C80.4852 27.7502 82.1095 28.2719 83.485 29.22C84.6832 30.2148 85.5342 31.5648 85.915 33.0749C86.3974 34.6091 86.5474 36.2283 86.355 37.8249C86.058 39.4315 85.4408 40.9619 84.54 42.3249C83.615 43.8549 82.455 45.325 80.715 45.925C80.285 46.08 79.385 46.3049 79.215 45.6799C79.045 45.0549 79.535 44.285 79.85 43.8C80.5465 42.7037 81.5621 41.8469 82.76 41.345C83.9159 40.8816 85.1638 40.6933 86.405 40.795C88.76 40.97 91.15 42.1999 91.97 44.5399C92.3813 45.9384 92.4261 47.4192 92.1 48.8399C91.8058 50.3973 91.246 51.8924 90.445 53.2599C88.722 56.1656 86.1125 58.4421 83 59.755C82.26 60.075 81.5 60.345 80.725 60.595C80.645 60.625 80.68 60.825 80.77 60.81Z" fill="#E0E0E0"/>
<path d="M64.875 17.4C62.875 17.255 60.12 18.83 61.1 19.98C62.08 21.13 64.68 19.27 64.68 19.27C64.68 19.27 64.435 21.595 65.285 21.86C66.135 22.125 67.285 19.905 66.435 18.485C66.8449 18.6466 67.289 18.702 67.7261 18.6461C68.1631 18.5901 68.579 18.4246 68.935 18.165C70.145 17.275 68.865 16.435 67.16 16.585C67.16 16.585 68.38 12.585 65.915 13.35C64.68 13.725 64.245 15.17 64.875 17.4Z" fill="#596250"/>
<path opacity="0.65" d="M64.875 17.4C62.875 17.255 60.12 18.83 61.1 19.98C62.08 21.13 64.68 19.27 64.68 19.27C64.68 19.27 64.435 21.595 65.285 21.86C66.135 22.125 67.285 19.905 66.435 18.485C66.8449 18.6466 67.289 18.702 67.7261 18.6461C68.1631 18.5901 68.579 18.4246 68.935 18.165C70.145 17.275 68.865 16.435 67.16 16.585C67.16 16.585 68.38 12.585 65.915 13.35C64.68 13.725 64.245 15.17 64.875 17.4Z" fill="white"/>
<path d="M66.735 18.25C66.6243 18.1416 66.5075 18.0398 66.385 17.945C66.21 17.81 66.025 17.68 65.85 17.55C65.6796 17.4261 65.5009 17.3141 65.315 17.215C65.208 17.1556 65.0979 17.1022 64.985 17.055C64.8292 16.9818 64.6559 16.9541 64.485 16.975C64.4402 16.9762 64.3966 16.9895 64.3587 17.0134C64.3208 17.0373 64.29 17.0709 64.2696 17.1108C64.2492 17.1507 64.2398 17.1953 64.2425 17.24C64.2452 17.2847 64.2599 17.3279 64.285 17.365C64.4224 17.5139 64.594 17.6271 64.785 17.695L65.055 17.84C65.24 17.95 65.405 18.075 65.555 18.2C65.705 18.325 65.905 18.445 66.055 18.57C66.3129 18.7791 66.6012 18.9478 66.91 19.07C66.9238 19.0774 66.9393 19.0813 66.955 19.0813C66.9707 19.0813 66.9862 19.0774 67 19.07C67.255 18.87 66.88 18.395 66.735 18.25Z" fill="#455A64"/>
</svg>
