<svg width="20" height="20" viewBox="0 0 20 20" fill="none" xmlns="http://www.w3.org/2000/svg">
<g clip-path="url(#clip0_131_6036)">
<path d="M10 5.9375C10.6904 5.9375 11.25 5.37786 11.25 4.6875C11.25 3.99714 10.6904 3.4375 10 3.4375C9.30964 3.4375 8.75 3.99714 8.75 4.6875C8.75 5.37786 9.30964 5.9375 10 5.9375Z" fill="#596250"/>
<path d="M10 11.25C10.6904 11.25 11.25 10.6904 11.25 10C11.25 9.30964 10.6904 8.75 10 8.75C9.30964 8.75 8.75 9.30964 8.75 10C8.75 10.6904 9.30964 11.25 10 11.25Z" fill="#596250"/>
<path d="M10 16.5625C10.6904 16.5625 11.25 16.0029 11.25 15.3125C11.25 14.6221 10.6904 14.0625 10 14.0625C9.30964 14.0625 8.75 14.6221 8.75 15.3125C8.75 16.0029 9.30964 16.5625 10 16.5625Z" fill="#596250"/>
</g>
<defs>
<clipPath id="clip0_131_6036">
<rect width="20" height="20" fill="white"/>
</clipPath>
</defs>
</svg>
