<svg width="20" height="20" viewBox="0 0 20 20" fill="none" xmlns="http://www.w3.org/2000/svg">
<path d="M10.1133 1.87501C5.54377 1.81329 1.8133 5.54376 1.87502 10.1133C1.93596 14.4957 5.50432 18.0641 9.88674 18.125C14.4571 18.1875 18.1867 14.457 18.1242 9.88751C18.0641 5.5043 14.4957 1.93594 10.1133 1.87501ZM15.0516 14.6582C15.036 14.675 15.017 14.6882 14.9957 14.6969C14.9745 14.7055 14.9516 14.7094 14.9287 14.7082C14.9058 14.707 14.8835 14.7008 14.8633 14.69C14.8431 14.6792 14.8255 14.6641 14.8117 14.6457C14.4623 14.1886 14.0345 13.7972 13.5481 13.4899C12.5535 12.8516 11.2934 12.5 10 12.5C8.70666 12.5 7.44651 12.8516 6.45198 13.4899C5.9656 13.7971 5.53772 14.1883 5.1883 14.6453C5.17458 14.6637 5.15698 14.6788 5.13676 14.6896C5.11654 14.7004 5.0942 14.7066 5.07131 14.7078C5.04842 14.709 5.02555 14.7051 5.00432 14.6965C4.98309 14.6878 4.96402 14.6746 4.94846 14.6578C3.80224 13.4205 3.15295 11.8036 3.12502 10.1172C3.06135 6.31602 6.18049 3.13438 9.98323 3.12501C13.786 3.11563 16.875 6.20352 16.875 10C16.8763 11.7271 16.225 13.391 15.0516 14.6582Z" fill="#596250"/>
<path d="M9.99999 5.625C9.22968 5.625 8.53319 5.91367 8.03827 6.43828C7.54335 6.96289 7.29608 7.68828 7.35194 8.4668C7.46522 10 8.65311 11.25 9.99999 11.25C11.3469 11.25 12.5324 10 12.648 8.46719C12.7058 7.69609 12.4605 6.97734 11.9574 6.44297C11.4605 5.91563 10.7652 5.625 9.99999 5.625Z" fill="#596250"/>
</svg>
